<svg xmlns:svg="http://www.w3.org/2000/svg" xmlns="http://www.w3.org/2000/svg" version="1.1" width="14.287965" height="16">
  <path d="m4.364836 15.982206c0.5204214 0.09515 0.710072-0.226048 0.710072-0.501904 0-0.246482-0.00894-0.900999-0.014048-1.768794C2.167572 14.339845 1.5571144 12.316906 1.5571144 12.316906 1.0839464 11.115786 0.40197039 10.79587 0.40197039 10.79587c-0.944421-0.645578 0.07152-0.632807 0.07152-0.632807 1.04403601 0.07407 1.59319211 1.072132 1.59319211 1.072132 0.9278189 1.589361 2.4348062 1.130241 3.0273843 0.864603C5.1885728 11.4274 5.4567654 10.968918 5.7543316 10.709027 3.4446819 10.446581 1.0162614 9.5538828 1.0162614 5.5680288c0-1.135349 0.405482-2.063806 1.0708549-2.791119-0.1072769-0.263084-0.4642289-1.32053 0.10153-2.75280598 0 0 0.8735418-0.279687 2.8607217 1.06638498 0.8294816-0.23051798 1.7196258-0.34609598 2.604023-0.34992798 0.8831201 0.0038 1.7732643 0.11941 2.604023 0.34992798 1.985903-1.34607198 2.857529-1.06638498 2.857529-1.06638498 0.567674 1.43227598 0.210723 2.48972198 0.103446 2.75280598 0.66665 0.727313 1.069577 1.65577 1.069577 2.791119 0 3.996071-2.432251 4.8753602-4.7495638 5.1326972 0.3735541 0.321192 0.7062408 0.955915 0.7062408 1.926517 0 1.390132-0.01277 2.512071-0.01277 2.853059 0 0.27841 0.187096 0.602157 0.71518 0.500626" fill="#0080ff"/>
</svg>
