<svg xmlns:svg="http://www.w3.org/2000/svg" xmlns="http://www.w3.org/2000/svg" version="1.1" width="15.555629" height="16">
    <path d="M8.2040076 9.1343804 7.4537192 8.5517436C7.2252231 8.3622407 6.9127128 8.1120818 6.9127128 7.6541477 6.9127128 7.19433 7.2252231 6.9019756 7.4964798 6.631284 8.3705291 5.9433469 9.2438249 5.2111422 9.2438249 3.6681815 9.2438249 2.0815183 8.2454496 1.2468389 7.766983 0.85087947H9.0571476L10.411359 0H6.3087899C5.1830747 0 3.5608091 0.26635899 2.3731192 1.2468389 1.4779722 2.0191669 1.0413243 3.0840378 1.0413243 4.0426664c0 1.6273517 1.249476 3.2769314 3.4558854 3.2769314 0.2083402 0 0.4362712-0.020533 0.6657091-0.041819-0.1030398 0.250724-0.2072099 0.459441-0.2072099 0.81377 0 0.6463067 0.332101 1.0426429 0.6248322 1.4180697C4.6430102 9.5740422 2.8928395 9.6778356 1.6026749 10.470885 0.3739198 11.201582 0 12.265135 0 13.0158 0 14.560833 1.4563093 16 4.476112 16 8.0570769 16 9.9528597 14.018508 9.9528597 12.056983 9.9530481 10.615743 9.1204408 9.9063317 8.2040076 9.1343804zM5.4765594 6.734889c-1.7914244 0-2.6029339-2.3158539-2.6029339-3.7132026 0-0.5440203 0.1030398-1.1057477 0.4573689-1.5444677C3.6649792 1.059408 4.246674 0.78833973 4.7897525 0.78833973c1.7270009 0 2.6227131 2.33657487 2.6227131 3.83941227 0 0.3759919-0.041442 1.0422661-0.5202854 1.5239351C6.5572535 6.4858603 5.9968448 6.734889 5.4765594 6.734889zm0.020533 8.390685c-2.2276955 0-3.6642257-1.065624-3.6642257-2.547364 0-1.481363 1.3319834-1.982434 1.7902941-2.148391 0.8740493-0.294049 1.9988227-0.335115 2.1864419-0.335115 0.2081518 0 0.3123219 0 0.4780899 0.02091 1.5836492 1.127034 2.2710212 1.688761 2.2710212 2.755704 0 1.292048-1.0622336 2.254256-3.0616214 2.254256z" fill="#0080ff"/>
    <polygon points="98.393,58.938 98.393,47.863 92.923,47.863 92.923,58.938 81.866,58.938 81.866,64.469 92.923,64.469 92.923,75.612 98.393,75.612 98.393,64.469 109.506,64.469 109.506,58.938 " transform="matrix(0.1883727,0,0,0.1883727,-5.0723116,-4.3992559)" fill="#0080ff"/>
</svg>
