<svg xmlns:svg="http://www.w3.org/2000/svg" xmlns="http://www.w3.org/2000/svg" version="1.1" width="16" height="15.29345">
    <path d="m3.6325953 15.29345 0-10.3189952-3.42984295 0 0 10.3189952 3.42984295 0zM1.9176586 3.5655702c1.1960556 0 1.9404987-0.792383 1.9404987-1.7826328C3.8358668 0.77039704 3.1137142-8.1671562e-7 1.9403461-8.1671562e-7 0.76710007-8.1671562e-7 0 0.77039704 0 1.7829374 0 2.7731872 0.74429043 3.5655702 1.895307 3.5655702l0.02229 0z" fill="#0080ff"/>
    <path d="m5.5304367 15.29345 3.4298125 0 0-5.7625636c0-0.3084034 0.022291-0.6165015 0.1128573-0.8369641 0.2479441-0.6161962 0.8122919-1.2543776 1.7597925-1.2543776 1.241095 0 1.737563 0.9462795 1.737563 2.3334842l0 5.5204211 3.429538 0 0-5.9167653c0-3.1695323-1.692097-4.6443724-3.948663-4.6443724-1.850298 0-2.6625903 1.0342202-3.1138975 1.7386624l0.022901 0 0-1.4965199-3.4298125 0c0.045009 0.9682646 0 10.3189952 0 10.3189952z" fill="#0080ff"/>
</svg>
