<svg xmlns:svg="http://www.w3.org/2000/svg" xmlns="http://www.w3.org/2000/svg" version="1.1" width="16" height="13.097025">
    <path d="M10.023285 0.1544807C8.5781748 0.67472041 7.664865 2.0157823 7.768913 3.4840144L7.8035956 4.0504976 7.2255515 3.9811323C5.1214709 3.715232 3.2832906 2.8134832 1.7225715 1.2990081L0.95955324 0.5475507 0.76301824 1.1024731C0.34682647 2.339487 0.61272677 3.6458667 1.479793 4.5244938 1.9422282 5.0100509 1.8381803 5.0794161 1.0404794 4.7903941 0.76301824 4.697907 0.52023971 4.6285417 0.49711794 4.6632244 0.41619177 4.7441506 0.69365295 5.7961909 0.91330971 6.2123826 1.2138927 6.7904267 1.8266194 7.35691 2.4971506 7.6921756l0.5664832 0.2659003-0.6705311 0.011561c-0.6474095 0-0.6705312 0.011561-0.6011659 0.2543394 0.2312176 0.7514573 1.1445273 1.5491582 2.161885 1.8959847l0.7167747 0.242778-0.6242877 0.369949C3.1214383 11.264488 2.0347153 11.565071 0.94799236 11.588193 0.42775265 11.599754 0 11.645997 0 11.68068c0 0.115609 1.4104277 0.763018 2.2312503 1.017358 2.462468 0.751457 5.3873712 0.427752 7.5839389-0.855506 1.5607188-0.913309 3.1214378-2.7283679 3.8497738-4.485622 0.39307-0.9364315 0.78614-2.6474421 0.78614-3.4682647 0-0.5318006 0.03468-0.6011659 0.682092-1.2370145 0.381509-0.3699482 0.739897-0.7745791 0.809262-0.8901879 0.115609-0.2196568 0.104048-0.2196568-0.485557-0.023122-0.982675 0.3468265-1.121406 0.300583-0.635849-0.2196567 0.358388-0.3699478 0.78614-1.04047899 0.78614-1.237014 0-0.0346826-0.173413 0.0231218-0.369948 0.12716971-0.208096 0.11560883-0.670531 0.28902206-1.017358 0.39307l-0.624287 0.196535-0.566484-0.38150912C12.716971 0.40882011 12.277657 0.17760246 12.046439 0.10823717 11.456834-0.05361519 10.555086-0.03049342 10.023285 0.1544807z" fill="#0080ff"/>
</svg>
